<svg width="60" height="60" viewBox="0 0 60 60" fill="none" xmlns="http://www.w3.org/2000/svg">
<path d="M46.4409 33.6321C44.7904 25.3258 52.6745 20.4542 52.6745 20.4542C52.6745 20.4542 49.6028 16.0101 44.4403 14.8668C39.2804 13.7211 36.6979 15.1526 34.1204 16.2263C31.5405 17.3026 30.2531 17.3026 30.2531 17.3026C26.53 17.3026 23.8083 13.3606 16.7148 15.1552C11.8278 16.3885 6.68328 22.03 5.75378 28.7632C4.82427 35.4988 6.8301 44.0935 10.6974 50.7546C14.5648 57.4208 18.5043 59.9261 21.3004 59.9982C24.0967 60.0676 26.8878 57.995 30.2531 57.4903C33.621 56.9908 35.6937 58.7108 38.9971 59.6403C42.2877 60.5673 43.4412 59.7073 47.2313 56.4836C51.0317 53.2599 54.4717 44.0138 54.4717 44.0138C54.4717 44.0138 48.0914 41.9435 46.4409 33.6321Z" fill="white"/>
<path d="M39.1337 9.49327C42.7899 5.76763 41.5514 0 41.5514 0C41.5514 0 36.4173 0.901211 32.9773 4.48015C29.5399 8.06172 30.1089 13.7186 30.1089 13.7186C30.1089 13.7186 35.4774 13.2165 39.1337 9.49327Z" fill="white"/>
</svg>
